#N canvas 0 0 800 600 10;

#X obj 50 50 tgl 15 0 empty empty global_switch;
#X obj 50 80 tgl 15 0 empty empty trumpet_switch;
#X obj 50 110 tgl 15 0 empty empty bass_switch;
#X obj 50 140 tgl 15 0 empty empty drum_switch;

#X obj 150 80 spigot;
#X obj 150 110 spigot;
#X obj 150 140 spigot;

#X obj 250 80 metro 100;
#X obj 250 110 metro 250;
#X obj 250 140 metro 200;

#X obj 350 80 random 60;    
#X obj 350 110 random 48;   
#X obj 350 140 random 10;   

#X obj 450 80 + 60;          
#X obj 450 110 + 36;       
#X obj 450 140 + 35;      

#X obj 550 80 noteout;       
#X obj 550 110 noteout;      
#X obj 550 140 dac~;         

#X obj 650 140 soundfiler;   

#X connect 0 0 4 0;          
#X connect 0 0 5 0;          
#X connect 0 0 6 0;          

#X connect 1 0 4 1;          
#X connect 2 0 5 1;          
#X connect 3 0 6 1;          

#X connect 4 0 7 0;          
#X connect 5 0 8 0;          
#X connect 6 0 9 0;          

#X connect 7 0 10 0;         
#X connect 8 0 11 0;         
#X connect 9 0 12 0;         

#X connect 10 0 13 0;        
#X connect 11 0 14 0;        
#X connect 12 0 15 0;        

#X connect 13 0 16 0;        
#X connect 14 0 17 0;        
#X connect 15 0 18 0;       
