#N canvas 0 52 1920 989 10;
#X obj 50 50 key;
#X obj 50 100 select 122 101 116 121 117 113 115 100 102 103 104 106 107;
#X msg 924 258 60;
#X msg 974 258 62;
#X msg 1024 258 64;
#X msg 1074 258 65;
#X msg 1124 258 67;
#X msg 1174 258 69;
#X msg 1224 258 71;
#X msg 1274 258 72;
#X msg 1324 258 74;
#X msg 1374 258 76;
#X msg 1424 258 77;
#X obj 547 684 makenote 120;
#X obj 551 778 noteout;
#X obj 18 190 print touche_pressee;
#X obj 1000 677 print note_midi;
#X msg 1474 258 79;
#X msg 1518 258 81;
#X connect 0 0 1 0;
#X connect 0 0 15 0;
#X connect 1 0 2 0;
#X connect 1 1 3 0;
#X connect 1 2 4 0;
#X connect 1 3 5 0;
#X connect 1 4 6 0;
#X connect 1 5 7 0;
#X connect 1 6 8 0;
#X connect 1 7 9 0;
#X connect 1 8 10 0;
#X connect 1 9 11 0;
#X connect 1 10 12 0;
#X connect 1 11 17 0;
#X connect 1 12 18 0;
#X connect 2 0 13 0;
#X connect 2 0 16 0;
#X connect 3 0 13 0;
#X connect 3 0 16 0;
#X connect 4 0 13 0;
#X connect 4 0 16 0;
#X connect 5 0 13 0;
#X connect 5 0 16 0;
#X connect 6 0 13 0;
#X connect 6 0 16 0;
#X connect 7 0 13 0;
#X connect 7 0 16 0;
#X connect 8 0 13 0;
#X connect 8 0 16 0;
#X connect 9 0 13 0;
#X connect 9 0 16 0;
#X connect 10 0 13 0;
#X connect 10 0 16 0;
#X connect 11 0 13 0;
#X connect 11 0 16 0;
#X connect 12 0 13 0;
#X connect 12 0 16 0;
#X connect 13 0 14 0;
#X connect 13 1 14 1;
#X connect 17 0 13 0;
#X connect 17 0 16 0;
#X connect 18 0 13 0;
#X connect 18 0 16 0;
