#N canvas 10 10 600 400 10;
#X obj 50 50 key;
#X obj 50 100 select 122 101 116 121 117;
#X msg 50 150 60;
#X msg 100 150 62;
#X msg 150 150 64;
#X msg 200 150 65;
#X msg 250 150 67;
#X obj 50 200 makenote 100;
#X obj 200 200 noteout;
#X obj 50 250 print touche_pressee;
#X obj 200 250 print note_midi;
#X connect 0 0 1 0;
#X connect 0 0 9 0;
#X connect 1 0 2 0;
#X connect 1 1 3 0;
#X connect 1 2 4 0;
#X connect 1 3 5 0;
#X connect 1 4 6 0;
#X connect 2 0 7 0;
#X connect 3 0 7 0;
#X connect 4 0 7 0;
#X connect 5 0 7 0;
#X connect 6 0 7 0;
#X connect 7 0 8 0;
#X connect 2 0 10 0;
#X connect 3 0 10 0;
#X connect 4 0 10 0;
#X connect 5 0 10 0;
#X connect 6 0 10 0;