#N canvas 699 0 1197 1041 12;
#X obj 201 229 +;
#X obj 225 79 bng 20 250 50 0 empty empty empty 0 -10 0 12 #fcfcfc #000000 #000000;
#X floatatom 199 338 5 0 0 0 - - - 0;
#X obj 181 189 f 1;
#X obj 230 189 f 2, f 5;
#X connect 0 0 2 0;
#X connect 0 0 3 1;
#X connect 1 0 3 0;
#X connect 1 0 4 0;
#X connect 3 0 0 0;
#X connect 3 0 4 1;
#X connect 4 0 0 1;
