#N canvas 1920 0 450 300 10;
#X obj 100 50 bng 15 250 50 0 empty empty empty 0 -6 0 10 #fcfcfc #000000 #000000;
#X obj 141 155 t b f;
#X obj 378 165 f 0;
#X obj 328 504 f 1;
#X obj 317 248 +;
#X obj 353 409 t f f;
#X obj 512 275 f 0;
#X obj 632 482 print fibonacci;
#X connect 0 0 1 0;
#X connect 1 0 4 0;
#X connect 1 1 2 0;
#X connect 2 0 4 1;
#X connect 4 0 5 0;
#X connect 5 0 6 0;
#X connect 5 1 3 0;
#X connect 6 0 2 0;
#X connect 6 0 7 0;
