#N canvas 262 25 1920 989 10;
#X obj 50 50 bng 16 250 50 0 empty empty empty 0 -8 0 10 #fcfcfc #000000 #000000;
#X obj 59 162 t b b;
#X obj 51 262 float 60;
#X obj 62 496 noteout;
#X obj 155 365 print note_midi;
#X obj 272 365 print velocity;
#X obj 55 365 makenote 2000;
#X obj 151 262 float 127;
#X connect 0 0 1 0;
#X connect 1 0 2 0;
#X connect 1 1 7 0;
#X connect 2 0 4 0;
#X connect 2 0 6 0;
#X connect 6 0 3 0;
#X connect 6 1 3 1;
#X connect 7 0 5 0;
#X connect 7 0 6 1;
