#N canvas 100 100 450 300 10;
#X obj 50 50 bng;
#X obj 50 100 t b b;
#X obj 50 150 float 60;
#X obj 150 150 float 100;
#X obj 50 200 makenote 500;
#X obj 50 250 noteout;
#X obj 150 200 print note_midi;
#X obj 200 200 print velocity;
#X connect 0 0 1 0;
#X connect 1 0 2 0;
#X connect 1 1 3 0;
#X connect 2 0 4 0;
#X connect 3 0 4 1;
#X connect 4 0 5 0;
#X connect 4 1 5 1;
#X connect 2 0 6 0;
#X connect 3 0 7 0;
