#N canvas 2873 0 958 980 10;
#X obj 50 50 bng 16 250 50 0 empty empty empty 0 -8 0 10 #fcfcfc #000000 #000000;
#X obj 133 159 metro 500;
#X obj 91 240 random 13;
#X obj 92 311 + 48;
#X obj 191 240 random 1001;
#X obj 192 311 + 1000;
#X obj 134 374 makenote;
#X obj 151 435 noteout;
#X connect 0 0 1 0;
#X connect 1 0 2 0;
#X connect 1 0 4 0;
#X connect 2 0 3 0;
#X connect 3 0 6 0;
#X connect 4 0 5 0;
#X connect 5 0 6 1;
#X connect 6 0 7 0;
#X connect 6 1 7 1;
