#N canvas 100 100 450 300 10;
#X obj 50 50 bng;
#X obj 50 100 metro 100;
#X obj 50 150 t b b;
#X obj 50 200 random 13;
#X obj 50 250 + 48;
#X obj 150 200 random 1001;
#X obj 150 250 + 1000;
#X obj 50 300 makenote;
#X obj 50 350 noteout;
#X obj 150 300 delay;
#X obj 250 200 print note;
#X obj 250 250 print duration;
#X obj 150 100 toggle;
#X connect 0 0 12 0;
#X connect 12 0 1 0;
#X connect 1 0 2 0;
#X connect 2 0 3 0;
#X connect 2 1 5 0;
#X connect 3 0 4 0;
#X connect 4 0 7 0;
#X connect 4 0 10 0;
#X connect 5 0 6 0;
#X connect 6 0 11 0;
#X connect 6 0 9 1;
#X connect 6 0 7 1;
#X connect 7 0 8 0;
#X connect 7 1 8 1;
#X connect 9 0 1 1;
