#N canvas 2873 0 958 980 10;
#X obj 72 35 bng 16 250 50 0 empty empty empty 0 -8 0 10 #fcfcfc #000000 #000000;
#X obj 101 175 metro 100;
#X obj 101 225 t b b;
#X obj 101 275 random 13;
#X obj 101 325 + 48;
#X obj 201 275 random 1001;
#X obj 201 325 + 1000;
#X obj 124 412 makenote;
#X obj 128 494 noteout;
#X obj 213 523 delay;
#X obj 16 512 print note;
#X obj 311 531 print duration;
#X obj 106 103 tgl 16 0 empty empty empty 0 -8 0 10 #fcfcfc #000000 #000000 0 1;
#X connect 0 0 12 0;
#X connect 1 0 2 0;
#X connect 2 0 3 0;
#X connect 2 1 5 0;
#X connect 3 0 4 0;
#X connect 4 0 7 0;
#X connect 4 0 10 0;
#X connect 5 0 6 0;
#X connect 6 0 11 0;
#X connect 6 0 9 1;
#X connect 6 0 7 1;
#X connect 7 0 8 0;
#X connect 7 1 8 1;
#X connect 9 0 1 1;
#X connect 12 0 1 0;
